<svg width="86" height="86" viewBox="0 0 86 86" fill="none" xmlns="http://www.w3.org/2000/svg">
<g filter="url(#filter0_d_3_129)">
<path fill-rule="evenodd" clip-rule="evenodd" d="M10 39.1842C10 55.5908 21.9158 69.2335 37.5 72V48.1657H29.25V39H37.5V31.6658C37.5 23.4158 42.8158 18.8342 50.3343 18.8342C52.7157 18.8342 55.2843 19.2 57.6657 19.5658V28H53.45C49.4157 28 48.5 30.0157 48.5 32.5842V39H57.3L55.8343 48.1657H48.5V72C64.0843 69.2335 76 55.5935 76 39.1842C76 20.9325 61.15 6 43 6C24.85 6 10 20.9325 10 39.1842Z" fill="#D8D8D8"/>
</g>
<defs>
<filter id="filter0_d_3_129" x="0" y="0" width="86" height="86" filterUnits="userSpaceOnUse" color-interpolation-filters="sRGB">
<feFlood flood-opacity="0" result="BackgroundImageFix"/>
<feColorMatrix in="SourceAlpha" type="matrix" values="0 0 0 0 0 0 0 0 0 0 0 0 0 0 0 0 0 0 127 0" result="hardAlpha"/>
<feOffset dy="4"/>
<feGaussianBlur stdDeviation="5"/>
<feComposite in2="hardAlpha" operator="out"/>
<feColorMatrix type="matrix" values="0 0 0 0 0.203922 0 0 0 0 0.203922 0 0 0 0 0.203922 0 0 0 0.5 0"/>
<feBlend mode="normal" in2="BackgroundImageFix" result="effect1_dropShadow_3_129"/>
<feBlend mode="normal" in="SourceGraphic" in2="effect1_dropShadow_3_129" result="shape"/>
</filter>
</defs>
</svg>
