<svg width="100" height="84" viewBox="0 0 100 84" fill="none" xmlns="http://www.w3.org/2000/svg">
<g filter="url(#filter0_d_3_123)">
<path d="M40.7692 49.6364C40.7692 50.8485 40.5689 52.0909 40.1683 53.3636C39.7676 54.6364 39.0785 55.7879 38.101 56.8182C37.1234 57.8485 35.9615 58.3636 34.6154 58.3636C33.2692 58.3636 32.1074 57.8485 31.1298 56.8182C30.1522 55.7879 29.4631 54.6364 29.0625 53.3636C28.6619 52.0909 28.4615 50.8485 28.4615 49.6364C28.4615 48.4242 28.6619 47.1818 29.0625 45.9091C29.4631 44.6364 30.1522 43.4848 31.1298 42.4545C32.1074 41.4242 33.2692 40.9091 34.6154 40.9091C35.9615 40.9091 37.1234 41.4242 38.101 42.4545C39.0785 43.4848 39.7676 44.6364 40.1683 45.9091C40.5689 47.1818 40.7692 48.4242 40.7692 49.6364ZM71.5385 49.6364C71.5385 50.8485 71.3381 52.0909 70.9375 53.3636C70.5369 54.6364 69.8478 55.7879 68.8702 56.8182C67.8926 57.8485 66.7308 58.3636 65.3846 58.3636C64.0385 58.3636 62.8766 57.8485 61.899 56.8182C60.9215 55.7879 60.2324 54.6364 59.8317 53.3636C59.4311 52.0909 59.2308 50.8485 59.2308 49.6364C59.2308 48.4242 59.4311 47.1818 59.8317 45.9091C60.2324 44.6364 60.9215 43.4848 61.899 42.4545C62.8766 41.4242 64.0385 40.9091 65.3846 40.9091C66.7308 40.9091 67.8926 41.4242 68.8702 42.4545C69.8478 43.4848 70.5369 44.6364 70.9375 45.9091C71.3381 47.1818 71.5385 48.4242 71.5385 49.6364ZM79.2308 49.6364C79.2308 46 78.125 42.9091 75.9135 40.3636C73.7019 37.8182 70.7051 36.5455 66.9231 36.5455C65.609 36.5455 62.484 36.8636 57.5481 37.5C55.2724 37.8333 52.7564 38 50 38C47.2436 38 44.7276 37.8333 42.4519 37.5C37.5801 36.8636 34.4551 36.5455 33.0769 36.5455C29.2949 36.5455 26.2981 37.8182 24.0865 40.3636C21.875 42.9091 20.7692 46 20.7692 49.6364C20.7692 52.303 21.2821 54.6288 22.3077 56.6136C23.3333 58.5985 24.6314 60.1591 26.2019 61.2955C27.7724 62.4318 29.7276 63.3409 32.0673 64.0227C34.4071 64.7045 36.6506 65.1515 38.7981 65.3636C40.9455 65.5758 43.3333 65.6818 45.9615 65.6818H54.0385C56.6667 65.6818 59.0545 65.5758 61.2019 65.3636C63.3494 65.1515 65.5929 64.7045 67.9327 64.0227C70.2724 63.3409 72.2276 62.4318 73.7981 61.2955C75.3686 60.1591 76.6667 58.5985 77.6923 56.6136C78.7179 54.6288 79.2308 52.303 79.2308 49.6364ZM90 41.6364C90 47.9091 89.0224 52.9242 87.0673 56.6818C85.8494 59.0152 84.1587 61.0303 81.9952 62.7273C79.8317 64.4242 77.5721 65.7273 75.2163 66.6364C72.8606 67.5455 70.1362 68.2652 67.0433 68.7955C63.9503 69.3258 61.2019 69.6591 58.7981 69.7955C56.3942 69.9318 53.7179 70 50.7692 70C48.2692 70 45.9936 69.9545 43.9423 69.8636C41.891 69.7727 39.5272 69.5833 36.851 69.2955C34.1747 69.0076 31.7308 68.553 29.5192 67.9318C27.3077 67.3106 25.1122 66.5303 22.9327 65.5909C20.7532 64.6515 18.8141 63.4242 17.1154 61.9091C15.4167 60.3939 14.0385 58.6515 12.9808 56.6818C10.9936 52.9545 10 47.9394 10 41.6364C10 34.4545 12.1795 28.4545 16.5385 23.6364C15.6731 21.1515 15.2404 18.5758 15.2404 15.9091C15.2404 12.3939 16.0577 9.09091 17.6923 6C21.1538 6 24.1987 6.59848 26.8269 7.79545C29.4551 8.99242 32.484 10.8636 35.9135 13.4091C40.625 12.3485 45.5769 11.8182 50.7692 11.8182C55.5128 11.8182 60 12.303 64.2308 13.2727C67.5962 10.7879 70.5929 8.95455 73.2212 7.77273C75.8494 6.59091 78.8782 6 82.3077 6C83.9423 9.09091 84.7596 12.3939 84.7596 15.9091C84.7596 18.5455 84.3269 21.0909 83.4615 23.5455C87.8205 28.3939 90 34.4242 90 41.6364Z" fill="#D8D8D8"/>
</g>
<defs>
<filter id="filter0_d_3_123" x="0" y="0" width="100" height="84" filterUnits="userSpaceOnUse" color-interpolation-filters="sRGB">
<feFlood flood-opacity="0" result="BackgroundImageFix"/>
<feColorMatrix in="SourceAlpha" type="matrix" values="0 0 0 0 0 0 0 0 0 0 0 0 0 0 0 0 0 0 127 0" result="hardAlpha"/>
<feOffset dy="4"/>
<feGaussianBlur stdDeviation="5"/>
<feComposite in2="hardAlpha" operator="out"/>
<feColorMatrix type="matrix" values="0 0 0 0 0.203922 0 0 0 0 0.203922 0 0 0 0 0.203922 0 0 0 0.5 0"/>
<feBlend mode="normal" in2="BackgroundImageFix" result="effect1_dropShadow_3_123"/>
<feBlend mode="normal" in="SourceGraphic" in2="effect1_dropShadow_3_123" result="shape"/>
</filter>
</defs>
</svg>
